<!-- Generator: Adobe Illustrator 22.1.0, SVG Export Plug-In  -->
<svg version="1.1"
	 xmlns="http://www.w3.org/2000/svg" xmlns:xlink="http://www.w3.org/1999/xlink" xmlns:a="http://ns.adobe.com/AdobeSVGViewerExtensions/3.0/"
	 x="0px" y="0px" width="1366px" height="890px" viewBox="0 0 1366 890" style="enable-background:new 0 0 1366 890;"
	 xml:space="preserve">
<style type="text/css">
	.st0{fill:#ED1E79;}
	.st1{fill:#8CC63F;}
	.st2{fill:#F7BB1E;}
	.st3{fill:#2E3192;}
</style>
<defs>
</defs>
<path class="st0" d="M0,0l164.637,78.592c50.329,24.025,107.937,27.904,161.033,10.843l184.826-59.39
	c59.866-19.237,124.924-13.887,180.843,14.872l111.876,57.536c50.66,26.054,110.818,25.877,161.323-0.474l76.067-39.687
	c73.762-38.484,162.539-34.227,232.28,11.138L1366,134v224H0V0z"/>
<path class="st1" d="M0,228l164.637,78.592c50.329,24.025,107.937,27.904,161.033,10.843l184.826-59.39
	c59.866-19.237,124.924-13.887,180.843,14.872l111.876,57.536c50.66,26.054,110.818,25.877,161.323-0.474l76.067-39.687
	c73.762-38.484,162.539-34.227,232.28,11.138L1366,362v224H0V228z"/>
<path class="st2" d="M0,433l164.637,78.592c50.329,24.025,107.937,27.904,161.033,10.843l184.826-59.39
	c59.866-19.237,124.924-13.887,180.843,14.872l111.876,57.536c50.66,26.054,110.818,25.877,161.323-0.474l76.067-39.687
	c73.762-38.484,162.539-34.227,232.28,11.138L1366,567v224H0V433z"/>
<path class="st3" d="M0,597l219.737,103.787c32.762,15.475,70.403,16.985,104.301,4.186l183.206-69.175
	c65.201-24.619,137.915-19.425,198.955,14.209l132.148,72.816c39.993,22.037,89.169,18.701,125.82-8.535l29.232-21.723
	c75.826-56.348,180.069-54.646,254.015,4.147L1366,791v99H0V597z"/>
</svg>