<!-- Generator: Adobe Illustrator 22.1.0, SVG Export Plug-In  -->
<svg version="1.1"
	 xmlns="http://www.w3.org/2000/svg" xmlns:xlink="http://www.w3.org/1999/xlink" xmlns:a="http://ns.adobe.com/AdobeSVGViewerExtensions/3.0/"
	 x="0px" y="0px" width="727.099px" height="451.871px" viewBox="0 0 727.099 451.871"
	 style="enable-background:new 0 0 727.099 451.871;" xml:space="preserve">
<style type="text/css">
	.st0{stroke:#000000;stroke-width:0.75;stroke-miterlimit:10;}
</style>
<defs>
</defs>
<g>
	<path class="st0" d="M363.549,24.496l37.039-0.65c13.251-0.232,26.416-2.183,39.165-5.803l61.796-17.547v132.062
		c0,11.895-1.729,23.727-5.134,35.125l-8.163,27.327c-6.345,21.242-18.443,40.315-34.956,55.108l-22.747,20.378v71.773
		c0,11.371,8.839,20.783,20.187,21.497l118.897,7.483c2.605,0.164,5.19,0.567,7.721,1.205l107.448,27.061
		c14.901,3.753,27.071,14.475,32.67,28.785l9.076,23.195h-363v-427.5"/>
	<path class="st0" d="M363.549,24.496l-33.633-0.59c-15.513-0.272-30.925-2.556-45.85-6.794L225.549,0.496v132.062
		c0,11.895,1.729,23.727,5.134,35.125l8.163,27.327c6.345,21.242,18.443,40.315,34.956,55.108l22.747,20.378v71.773
		c0,11.371-8.839,20.783-20.187,21.497l-118.897,7.483c-2.605,0.164-5.19,0.567-7.721,1.205L42.296,399.516
		c-14.901,3.753-27.071,14.475-32.67,28.785l-9.076,23.195h363v-427.5"/>
</g>
</svg>